<mxfile host="app.diagrams.net" modified="2022-07-04T09:06:50.325Z" agent="5.0 (Windows NT 10.0; Win64; x64) AppleWebKit/537.36 (KHTML, like Gecko) Chrome/103.0.0.0 Safari/537.36" etag="QHLGCZISfza3KHTXcS2M" version="20.0.4" type="github">
  <diagram id="F-mWfHKr3n5SSRair65e" name="Page-1">
    <mxGraphModel dx="1463" dy="1917" grid="1" gridSize="10" guides="1" tooltips="1" connect="1" arrows="1" fold="1" page="1" pageScale="1" pageWidth="827" pageHeight="1169" math="0" shadow="0">
      <root>
        <mxCell id="0" />
        <mxCell id="1" parent="0" />
        <mxCell id="LPjcEhtQdbkFDPHxE0my-1" value="Systemanwendung fÃ¼r &quot;Home&quot;" style="text;html=1;strokeColor=none;fillColor=none;align=center;verticalAlign=middle;whiteSpace=wrap;rounded=0;fontStyle=1" vertex="1" parent="1">
          <mxGeometry x="361.5" y="-1160" width="187" height="30" as="geometry" />
        </mxCell>
        <mxCell id="LPjcEhtQdbkFDPHxE0my-2" value="" style="rounded=0;whiteSpace=wrap;html=1;labelPosition=center;verticalLabelPosition=top;align=center;verticalAlign=bottom;spacingTop=0;" vertex="1" parent="1">
          <mxGeometry x="80" y="-1120" width="250" height="440" as="geometry" />
        </mxCell>
        <mxCell id="LPjcEhtQdbkFDPHxE0my-3" value="" style="rounded=0;whiteSpace=wrap;html=1;" vertex="1" parent="1">
          <mxGeometry x="330" y="-1120" width="250" height="440" as="geometry" />
        </mxCell>
        <mxCell id="LPjcEhtQdbkFDPHxE0my-4" value="" style="rounded=0;whiteSpace=wrap;html=1;" vertex="1" parent="1">
          <mxGeometry x="580" y="-1120" width="250" height="440" as="geometry" />
        </mxCell>
        <mxCell id="LPjcEhtQdbkFDPHxE0my-5" value="Frontend" style="text;html=1;strokeColor=none;fillColor=none;align=center;verticalAlign=middle;whiteSpace=wrap;rounded=0;" vertex="1" parent="1">
          <mxGeometry x="175" y="-1120" width="60" height="30" as="geometry" />
        </mxCell>
        <mxCell id="LPjcEhtQdbkFDPHxE0my-6" value="Datenbank" style="text;html=1;strokeColor=none;fillColor=none;align=center;verticalAlign=middle;whiteSpace=wrap;rounded=0;" vertex="1" parent="1">
          <mxGeometry x="675" y="-1120" width="60" height="30" as="geometry" />
        </mxCell>
        <mxCell id="LPjcEhtQdbkFDPHxE0my-7" value="Backend" style="text;html=1;strokeColor=none;fillColor=none;align=center;verticalAlign=middle;whiteSpace=wrap;rounded=0;" vertex="1" parent="1">
          <mxGeometry x="425" y="-1120" width="60" height="30" as="geometry" />
        </mxCell>
        <mxCell id="LPjcEhtQdbkFDPHxE0my-8" value="" style="endArrow=none;html=1;rounded=0;" edge="1" parent="1">
          <mxGeometry width="50" height="50" relative="1" as="geometry">
            <mxPoint x="80" y="-1090" as="sourcePoint" />
            <mxPoint x="830" y="-1090" as="targetPoint" />
          </mxGeometry>
        </mxCell>
        <mxCell id="LPjcEhtQdbkFDPHxE0my-9" value="Home" style="swimlane;" vertex="1" parent="1">
          <mxGeometry x="105" y="-990" width="200" height="230" as="geometry" />
        </mxCell>
        <mxCell id="LPjcEhtQdbkFDPHxE0my-13" value="Tags" style="rounded=1;whiteSpace=wrap;html=1;" vertex="1" parent="LPjcEhtQdbkFDPHxE0my-9">
          <mxGeometry x="110" y="35" width="50" height="50" as="geometry" />
        </mxCell>
        <mxCell id="LPjcEhtQdbkFDPHxE0my-14" value="Articles" style="rounded=1;whiteSpace=wrap;html=1;" vertex="1" parent="LPjcEhtQdbkFDPHxE0my-9">
          <mxGeometry x="40" y="140" width="120" height="60" as="geometry" />
        </mxCell>
        <mxCell id="LPjcEhtQdbkFDPHxE0my-11" value="database Tabelle" style="rounded=1;whiteSpace=wrap;html=1;" vertex="1" parent="1">
          <mxGeometry x="645" y="-910" width="120" height="60" as="geometry" />
        </mxCell>
        <mxCell id="LPjcEhtQdbkFDPHxE0my-12" value="&lt;i&gt;Ordner bzgl. Frontend&lt;/i&gt;: /Technik_Blog/pages/&lt;b&gt;home&lt;/b&gt;" style="text;html=1;align=center;verticalAlign=middle;resizable=0;points=[];autosize=1;strokeColor=none;fillColor=none;" vertex="1" parent="1">
          <mxGeometry x="71.5" y="-660" width="290" height="30" as="geometry" />
        </mxCell>
        <mxCell id="LPjcEhtQdbkFDPHxE0my-17" value="databaseArticles.php" style="swimlane;" vertex="1" parent="1">
          <mxGeometry x="355" y="-870" width="200" height="80" as="geometry" />
        </mxCell>
        <mxCell id="LPjcEhtQdbkFDPHxE0my-18" value="Get 7 articles" style="rounded=0;whiteSpace=wrap;html=1;" vertex="1" parent="LPjcEhtQdbkFDPHxE0my-17">
          <mxGeometry x="40" y="40" width="120" height="20" as="geometry" />
        </mxCell>
        <mxCell id="LPjcEhtQdbkFDPHxE0my-20" value="databaseInterests.php" style="swimlane;" vertex="1" parent="1">
          <mxGeometry x="355" y="-980" width="200" height="80" as="geometry" />
        </mxCell>
        <mxCell id="LPjcEhtQdbkFDPHxE0my-21" value="Get all content" style="rounded=0;whiteSpace=wrap;html=1;" vertex="1" parent="LPjcEhtQdbkFDPHxE0my-20">
          <mxGeometry x="40" y="40" width="120" height="20" as="geometry" />
        </mxCell>
        <mxCell id="LPjcEhtQdbkFDPHxE0my-22" value="GET" style="endArrow=classic;html=1;rounded=0;exitX=1;exitY=0.5;exitDx=0;exitDy=0;entryX=0;entryY=0.5;entryDx=0;entryDy=0;" edge="1" parent="1" source="LPjcEhtQdbkFDPHxE0my-13" target="LPjcEhtQdbkFDPHxE0my-21">
          <mxGeometry width="50" height="50" relative="1" as="geometry">
            <mxPoint x="370" y="-850" as="sourcePoint" />
            <mxPoint x="420" y="-900" as="targetPoint" />
          </mxGeometry>
        </mxCell>
        <mxCell id="LPjcEhtQdbkFDPHxE0my-23" value="GET" style="endArrow=classic;html=1;rounded=0;exitX=1;exitY=0.5;exitDx=0;exitDy=0;entryX=0;entryY=0.5;entryDx=0;entryDy=0;" edge="1" parent="1" source="LPjcEhtQdbkFDPHxE0my-14" target="LPjcEhtQdbkFDPHxE0my-18">
          <mxGeometry width="50" height="50" relative="1" as="geometry">
            <mxPoint x="370" y="-850" as="sourcePoint" />
            <mxPoint x="420" y="-900" as="targetPoint" />
          </mxGeometry>
        </mxCell>
        <mxCell id="LPjcEhtQdbkFDPHxE0my-26" value="" style="endArrow=classic;html=1;rounded=0;exitX=1;exitY=0.5;exitDx=0;exitDy=0;entryX=0.5;entryY=1;entryDx=0;entryDy=0;" edge="1" parent="1" source="LPjcEhtQdbkFDPHxE0my-18" target="LPjcEhtQdbkFDPHxE0my-11">
          <mxGeometry width="50" height="50" relative="1" as="geometry">
            <mxPoint x="460" y="-900" as="sourcePoint" />
            <mxPoint x="510" y="-950" as="targetPoint" />
            <Array as="points">
              <mxPoint x="705" y="-820" />
            </Array>
          </mxGeometry>
        </mxCell>
        <mxCell id="LPjcEhtQdbkFDPHxE0my-27" value="SELECT" style="edgeLabel;html=1;align=center;verticalAlign=middle;resizable=0;points=[];" vertex="1" connectable="0" parent="LPjcEhtQdbkFDPHxE0my-26">
          <mxGeometry x="0.1598" y="1" relative="1" as="geometry">
            <mxPoint as="offset" />
          </mxGeometry>
        </mxCell>
        <mxCell id="LPjcEhtQdbkFDPHxE0my-28" value="" style="endArrow=classic;html=1;rounded=0;exitX=1;exitY=0.5;exitDx=0;exitDy=0;entryX=0.5;entryY=0;entryDx=0;entryDy=0;" edge="1" parent="1" source="LPjcEhtQdbkFDPHxE0my-21" target="LPjcEhtQdbkFDPHxE0my-11">
          <mxGeometry width="50" height="50" relative="1" as="geometry">
            <mxPoint x="460" y="-870" as="sourcePoint" />
            <mxPoint x="510" y="-920" as="targetPoint" />
            <Array as="points">
              <mxPoint x="705" y="-930" />
            </Array>
          </mxGeometry>
        </mxCell>
        <mxCell id="LPjcEhtQdbkFDPHxE0my-30" value="SELECT" style="edgeLabel;html=1;align=center;verticalAlign=middle;resizable=0;points=[];" vertex="1" connectable="0" parent="LPjcEhtQdbkFDPHxE0my-28">
          <mxGeometry x="0.0034" relative="1" as="geometry">
            <mxPoint as="offset" />
          </mxGeometry>
        </mxCell>
      </root>
    </mxGraphModel>
  </diagram>
</mxfile>
